 <svg  version="1.0" xmlns="http://www.w3.org/2000/svg"  width="1350.000000pt" height="1350.000000pt" viewBox="0 0 1350.000000 1350.000000"  preserveAspectRatio="xMidYMid meet">  <g transform="translate(0.000000,1350.000000) scale(0.100000,-0.100000)" fill="#7b002e" stroke="none"> <path d="M0 6750 l0 -6750 6750 0 6750 0 0 6750 0 6750 -6750 0 -6750 0 0 -6750z m7010 4685 c280 -25 527 -59 670 -93 25 -6 106 -25 180 -43 74 -17 221 -60 325 -94 211 -70 246 -84 445 -178 47 -22 121 -55 164 -74 43 -18 129 -63 190 -99 61 -36 117 -68 124 -72 53 -29 292 -187 357 -236 161 -121 244 -190 391 -324 87 -79 107 -104 138 -167 61 -126 51 -126 -80 3 -179 175 -217 209 -401 348 -279 211 -472 334 -702 448 -434 214 -711 313 -1116 401 -44 10 -96 22 -115 27 -19 6 -62 14 -95 18 -70 9 -198 26 -305 42 -112 16 -703 22 -835 8 -288 -30 -268 -27 -480 -66 -87 -17 -356 -85 -445 -114 -30 -9 -91 -27 -135 -39 -44 -13 -93 -28 -110 -36 -16 -7 -64 -25 -105 -39 -111 -40 -155 -60 -374 -170 -259 -129 -499 -271 -651 -385 -512 -384 -852 -750 -1191 -1281 -177 -277 -333 -608 -463 -980 -38 -108 -53 -155 -60 -193 -5 -23 -18 -76 -29 -117 -31 -115 -76 -343 -102 -510 -11 -73 -19 -153 -40 -405 -12 -150 -12 -341 0 -465 5 -52 13 -149 19 -215 6 -66 15 -145 21 -175 5 -30 16 -98 25 -150 19 -110 38 -197 72 -330 14 -52 29 -115 34 -140 5 -25 20 -76 34 -115 14 -38 35 -99 46 -135 20 -65 42 -120 59 -152 6 -10 10 -22 10 -28 0 -27 191 -414 294 -595 115 -202 310 -484 455 -655 295 -351 700 -699 1119 -962 104 -65 475 -249 612 -303 52 -21 113 -46 135 -56 50 -23 252 -90 405 -134 484 -140 1155 -199 1655 -145 464 49 764 117 1115 250 30 12 87 31 125 44 157 53 465 207 725 365 83 50 280 182 321 215 14 12 43 35 64 51 217 170 342 282 498 447 421 443 748 949 954 1478 14 36 34 88 45 115 11 28 24 64 28 80 5 17 22 68 38 115 52 148 117 425 156 655 34 206 39 250 51 465 14 241 6 608 -16 748 -7 40 -10 75 -7 77 20 20 57 -38 90 -140 18 -55 18 -704 0 -865 -43 -391 -120 -750 -223 -1040 -77 -214 -80 -223 -128 -332 -12 -26 -21 -49 -21 -52 0 -14 -166 -343 -227 -451 -71 -125 -217 -344 -325 -487 -175 -233 -457 -536 -641 -689 -67 -55 -143 -119 -169 -140 -63 -53 -194 -148 -298 -216 -47 -30 -110 -72 -140 -93 -30 -21 -77 -49 -105 -64 -27 -14 -77 -42 -110 -61 -33 -19 -67 -38 -75 -41 -8 -3 -22 -9 -30 -14 -32 -19 -180 -90 -325 -155 -176 -80 -370 -147 -600 -210 -27 -8 -75 -21 -105 -30 -61 -17 -82 -21 -315 -59 -254 -41 -287 -45 -520 -57 -338 -18 -705 2 -1025 56 -236 39 -363 67 -465 100 -38 13 -124 40 -190 60 -350 107 -892 366 -1167 559 -178 124 -350 256 -473 363 -201 173 -466 450 -588 613 -180 240 -293 408 -372 555 -76 139 -285 566 -285 581 0 3 -10 26 -21 52 -46 101 -62 141 -93 237 -69 213 -136 485 -156 635 -5 36 -14 78 -19 94 -6 15 -11 46 -11 68 0 22 -7 82 -15 132 -33 207 -34 788 -1 1036 9 63 18 131 20 150 25 221 153 729 236 935 221 552 417 901 713 1273 223 281 418 482 683 703 287 240 522 396 809 538 94 47 156 76 320 150 39 18 84 38 100 46 99 45 196 82 305 115 204 62 426 119 550 139 30 5 75 14 100 20 99 23 338 48 590 60 251 13 296 12 480 -4z m-478 -570 l3 -40 55 -5 c70 -6 71 -24 2 -28 l-52 -3 2 -115 c1 -63 5 -117 8 -119 4 -2 19 3 34 11 41 20 62 17 85 -12 43 -54 19 -125 -47 -144 -153 -42 -232 31 -232 217 0 62 -6 96 -25 160 -6 20 -2 23 39 34 37 9 53 20 78 55 17 25 35 41 39 37 4 -5 9 -26 11 -48z m865 39 c3 -8 -2 -86 -11 -172 -24 -220 -24 -251 -3 -267 44 -32 -2 -95 -68 -95 -53 0 -92 29 -101 75 -3 19 0 96 7 172 7 76 14 168 14 205 1 37 4 71 9 75 6 6 67 17 129 22 10 0 20 -6 24 -15z m282 -43 c5 -9 3 -43 -4 -81 -19 -92 -45 -271 -45 -310 0 -19 7 -42 17 -52 13 -15 14 -23 5 -43 -25 -54 -112 -56 -156 -4 -36 42 -34 101 10 311 8 37 14 93 14 126 0 32 2 61 5 64 3 3 37 5 76 5 54 0 72 -4 78 -16z m-587 -68 c58 -39 65 -97 16 -138 l-31 -27 25 -21 c59 -50 61 -115 4 -165 -29 -25 -45 -30 -107 -36 -82 -7 -119 0 -183 38 -50 29 -67 53 -91 121 -17 52 -11 102 22 168 15 31 74 71 124 85 57 16 179 2 221 -25z m-814 -50 c4 -51 -6 -53 -52 -12 -29 25 -42 30 -77 27 -49 -4 -71 -27 -49 -53 8 -9 56 -36 107 -60 70 -33 97 -51 113 -77 62 -103 -34 -198 -203 -198 -115 0 -157 27 -157 104 0 39 36 76 76 76 37 0 37 17 1 29 -94 31 -109 133 -28 186 33 22 45 24 151 22 l115 -2 3 -42z m-474 -23 c63 -24 88 -97 46 -135 -28 -25 -25 -33 15 -49 22 -10 41 -27 51 -50 16 -33 16 -38 -1 -81 -12 -32 -25 -50 -44 -57 -14 -6 -39 -18 -56 -27 -21 -11 -55 -16 -115 -15 -78 0 -90 3 -130 30 -91 60 -120 196 -61 285 34 51 74 77 145 94 64 16 117 18 150 5z m2169 -34 c30 -8 68 -21 85 -30 67 -35 110 -122 98 -199 -8 -49 -47 -126 -78 -153 -34 -30 -127 -50 -168 -35 -18 6 -43 11 -55 11 -13 0 -44 20 -73 48 -78 73 -89 140 -41 251 25 59 62 89 128 107 25 7 47 13 48 13 1 1 26 -5 56 -13z m-2676 -19 c46 -24 88 -73 123 -143 24 -50 30 -74 30 -128 0 -78 -13 -108 -69 -159 -48 -43 -75 -52 -141 -43 -42 6 -51 4 -63 -14 -16 -23 -150 -72 -172 -63 -9 3 -17 15 -19 27 -2 11 -10 53 -16 91 -16 86 -74 261 -101 297 -10 15 -19 38 -19 51 0 20 10 26 88 49 48 14 110 33 137 41 63 20 178 17 222 -6z m6602 -178 c10 -110 51 -199 121 -262 77 -70 127 -89 260 -100 63 -5 117 -11 119 -13 14 -13 -28 -26 -130 -38 -149 -19 -224 -57 -293 -148 -53 -71 -67 -108 -78 -213 -5 -55 -12 -102 -15 -105 -13 -14 -32 40 -38 108 -11 121 -62 216 -154 284 -61 46 -115 64 -216 73 -161 15 -163 39 -5 53 124 11 177 32 255 104 71 65 105 137 117 248 16 141 45 145 57 9z m-3462 69 c122 -46 148 -71 123 -116 -21 -36 -42 -34 -52 3 -12 50 -44 77 -86 73 -34 -3 -37 -6 -35 -31 1 -18 23 -51 61 -95 72 -80 91 -132 68 -185 -21 -51 -50 -67 -120 -67 -74 0 -182 40 -222 81 -29 31 -35 80 -14 120 13 24 55 42 80 34 28 -9 32 11 10 47 -36 60 -19 116 44 144 44 19 76 17 143 -8z m2176 -1018 c7 -133 27 -259 51 -326 50 -140 175 -273 324 -347 56 -27 191 -56 322 -67 134 -12 160 -17 160 -30 0 -12 -37 -18 -182 -30 -152 -13 -220 -29 -314 -75 -179 -88 -305 -254 -338 -446 -8 -46 -20 -158 -26 -249 -6 -90 -12 -166 -15 -168 -2 -2 -6 16 -9 40 -8 64 -34 294 -41 367 -3 35 -10 71 -14 80 -5 9 -26 52 -47 96 -30 62 -56 98 -119 160 -136 136 -261 183 -531 200 -156 11 -170 38 -24 50 315 27 421 66 566 210 104 103 156 216 173 375 27 239 32 287 38 310 l6 25 7 -25 c4 -14 10 -81 13 -150z m-3538 -891 c33 -6 87 -14 120 -19 222 -32 483 -132 677 -258 172 -112 343 -278 468 -452 83 -117 207 -355 241 -464 12 -39 35 -110 50 -158 16 -47 29 -98 29 -111 0 -14 5 -38 10 -52 43 -113 81 -606 60 -785 -46 -407 -189 -723 -445 -985 -186 -190 -409 -312 -690 -376 -176 -40 -518 -43 -665 -5 -200 51 -365 162 -462 311 -56 85 -102 191 -118 268 -9 46 -15 57 -31 57 -18 0 -19 -10 -19 -288 0 -211 -3 -291 -12 -300 -9 -9 -177 -12 -695 -12 l-683 0 -12 25 c-10 22 -6 37 35 118 78 154 139 442 157 747 6 91 15 199 20 240 13 97 12 1213 -1 1385 -5 72 -13 186 -18 255 -24 324 -88 611 -171 766 -30 56 -36 84 -23 97 11 12 2112 8 2178 -4z m2483 -4293 c3 -22 -2 -29 -30 -40 -73 -31 -111 -93 -70 -115 20 -11 25 -8 108 46 78 51 144 41 179 -27 36 -71 -1 -160 -88 -210 -58 -34 -79 -37 -97 -15 -21 25 -4 65 30 72 38 7 92 67 88 96 -5 37 -43 32 -109 -12 -69 -46 -107 -51 -155 -22 -90 55 -56 198 60 251 49 22 80 14 84 -24z m-5538 -176 c83 -42 143 -158 90 -175 -26 -8 -36 -1 -65 45 -17 27 -38 43 -70 55 -43 17 -47 17 -85 0 -74 -33 -101 -114 -60 -180 24 -39 44 -49 70 -35 18 10 18 44 -1 56 -5 3 -9 16 -9 29 0 18 7 26 26 31 21 5 33 -1 70 -37 24 -24 44 -51 44 -61 0 -21 -55 -85 -93 -108 -44 -27 -97 -9 -151 51 -77 85 -82 190 -14 273 61 74 166 98 248 56z m5203 -194 c29 -13 81 -36 117 -51 36 -15 87 -38 113 -52 42 -21 48 -28 45 -51 -4 -32 -34 -40 -79 -22 -31 13 -39 10 -104 -45 -27 -23 -30 -30 -30 -87 0 -59 -2 -63 -24 -66 -28 -4 -33 2 -67 93 -14 39 -42 109 -60 157 -33 85 -41 128 -27 141 13 14 66 6 116 -17z m-4825 -168 c3 -24 -27 -142 -75 -298 -21 -68 -46 -94 -75 -79 -18 10 -19 17 -13 64 l6 52 -52 42 c-58 46 -65 48 -108 24 -24 -14 -35 -15 -48 -7 -46 29 -23 59 94 121 43 22 105 57 138 76 76 45 128 47 133 5z m4507 -32 c11 -8 43 -46 70 -86 28 -40 69 -98 93 -131 48 -68 53 -95 17 -111 -31 -14 -50 2 -102 80 -43 64 -59 63 -55 -2 3 -35 -1 -52 -14 -67 -22 -24 -41 -24 -99 1 -26 11 -49 20 -51 20 -14 0 2 -35 41 -86 43 -58 57 -105 34 -119 -24 -15 -57 9 -104 77 -131 188 -136 198 -133 225 4 40 37 40 138 -1 47 -19 88 -32 92 -29 5 2 8 50 8 105 0 80 3 105 17 120 19 22 23 22 48 4z m-4237 -148 c7 -7 12 -19 12 -27 0 -13 -79 -147 -130 -222 -23 -33 -14 -49 50 -88 28 -17 53 -38 56 -45 7 -19 -13 -56 -31 -56 -16 0 -177 97 -187 114 -17 25 -4 56 83 193 72 112 96 143 113 143 12 0 27 -5 34 -12z m360 -232 c3 -19 -14 -65 -52 -142 -31 -62 -56 -119 -56 -127 0 -7 24 -26 53 -40 61 -29 80 -48 75 -73 -7 -40 -32 -38 -131 10 -93 45 -97 48 -97 79 0 29 113 280 143 315 5 7 22 12 36 10 20 -2 27 -9 29 -32z m3155 -55 c13 -5 27 -17 31 -27 11 -28 -13 -44 -64 -44 -35 0 -52 -5 -66 -21 -19 -21 -19 -21 14 -49 18 -15 49 -33 70 -39 20 -7 42 -14 48 -17 6 -3 15 10 20 28 7 23 17 34 32 36 22 3 28 -6 48 -72 5 -17 22 -37 39 -46 23 -13 30 -24 30 -46 0 -27 -2 -29 -42 -29 -33 0 -49 -6 -75 -31 -72 -69 -146 -82 -210 -39 -47 32 -68 90 -50 139 16 42 15 67 -3 90 -33 44 -2 118 65 153 47 25 75 28 113 14z m-2786 -82 c15 -7 42 -18 60 -25 17 -8 36 -14 43 -14 6 0 25 -7 41 -16 24 -12 30 -21 27 -42 -2 -22 -9 -28 -35 -30 -17 -2 -54 7 -82 19 -57 24 -81 16 -81 -27 0 -24 3 -26 78 -54 40 -15 59 -45 41 -66 -15 -18 -46 -18 -100 1 -43 15 -45 15 -62 -6 -31 -39 -20 -54 68 -89 55 -22 60 -27 63 -53 6 -52 -53 -45 -205 24 -27 12 -43 25 -43 36 0 36 103 318 122 336 24 20 28 21 65 6z m491 -140 c106 -25 110 -27 117 -50 12 -35 -13 -51 -67 -44 -57 8 -54 13 -94 -158 -23 -102 -31 -120 -51 -130 -19 -8 -27 -7 -40 6 -18 18 -14 60 23 225 17 81 11 102 -32 102 -24 0 -54 24 -54 44 0 41 39 42 198 5z m1547 -17 c6 -4 46 -59 90 -122 43 -63 89 -128 102 -143 27 -33 29 -59 7 -81 -20 -21 -31 -20 -49 2 -55 68 -42 63 -120 43 -68 -17 -70 -19 -83 -57 -16 -47 -35 -69 -55 -61 -29 11 -28 45 8 227 9 47 21 106 25 132 5 27 12 52 15 58 7 12 45 13 60 2z m-1130 -53 c99 -15 130 -42 83 -73 -18 -11 -36 -13 -79 -7 -71 9 -99 0 -99 -33 0 -30 25 -46 73 -46 47 0 86 -32 71 -57 -9 -14 -25 -18 -80 -18 l-69 -1 0 -39 0 -40 69 -12 c70 -13 96 -26 96 -48 0 -29 -27 -36 -125 -29 -79 6 -102 11 -121 28 -22 20 -22 24 -14 111 20 204 28 249 46 262 22 16 51 16 149 2z m784 -6 c18 -16 24 -40 39 -183 20 -176 17 -200 -24 -200 -41 0 -44 10 -65 242 -9 102 -9 131 1 143 16 19 23 19 49 -2z m-306 -17 c74 -30 106 -105 72 -170 -17 -32 -20 -82 -5 -91 6 -3 10 -16 10 -28 0 -13 7 -33 16 -45 15 -21 15 -25 -2 -43 -9 -10 -23 -19 -31 -19 -22 0 -60 47 -67 82 -9 46 -24 58 -72 58 -53 0 -74 -19 -74 -70 0 -21 -3 -45 -6 -54 -9 -22 -51 -20 -64 3 -15 30 -13 356 3 369 26 22 174 28 220 8z"/> <path d="M6565 10480 c-10 -15 14 -50 34 -50 18 0 35 35 25 52 -7 11 -52 10 -59 -2z"/> <path d="M6906 10759 c-27 -31 -34 -77 -16 -95 8 -8 27 -6 63 6 39 13 54 23 61 43 26 73 -56 108 -108 46z"/> <path d="M6883 10618 c-28 -31 5 -128 56 -166 43 -31 79 -32 103 -2 28 38 15 64 -28 57 -48 -8 -60 17 -33 68 11 21 17 41 12 45 -4 4 -27 10 -51 12 -32 3 -47 -1 -59 -14z"/> <path d="M6122 10503 c3 -36 1 -38 -29 -41 -36 -4 -41 -16 -17 -50 20 -28 56 -28 87 1 40 37 43 63 8 97 -40 40 -53 38 -49 -7z"/> <path d="M5652 10667 c-14 -14 -22 -38 -24 -67 -3 -41 -1 -45 20 -48 13 -2 41 8 63 22 30 20 39 33 39 55 0 56 -59 79 -98 38z"/> <path d="M5635 10509 c-4 -6 0 -30 9 -53 45 -117 196 -162 196 -59 0 29 -21 38 -50 23 -42 -23 -61 22 -35 83 6 15 0 17 -53 17 -34 0 -64 -5 -67 -11z"/> <path d="M7947 10642 c-28 -11 -55 -65 -78 -154 -29 -115 -16 -178 36 -178 50 0 96 97 103 220 4 72 2 89 -12 103 -19 18 -22 19 -49 9z"/> <path d="M5057 10619 c-5 -19 32 -159 63 -234 l11 -30 21 28 c26 35 61 35 94 0 30 -33 30 -78 -1 -78 -34 0 -47 -15 -40 -44 12 -49 52 -60 83 -23 6 9 12 43 12 78 0 72 -36 164 -95 242 -56 73 -136 107 -148 61z"/> <path d="M8327 10290 c-7 -32 -33 -40 -54 -19 -16 16 -43 4 -43 -18 0 -37 29 -63 70 -63 59 0 85 46 58 105 -15 33 -24 32 -31 -5z"/> <path d="M6328 8533 c-9 -2 -19 -11 -22 -19 -7 -19 -8 -2402 -1 -2414 13 -21 33 5 43 55 27 132 97 261 196 358 83 83 148 110 256 111 202 1 360 -126 425 -340 44 -143 32 -425 -24 -599 -15 -45 -20 -50 -46 -50 -28 0 -30 3 -36 50 -17 135 -74 243 -149 285 -56 31 -156 34 -207 7 -96 -52 -159 -165 -176 -319 -20 -176 26 -329 133 -442 123 -130 334 -170 479 -90 101 54 203 177 279 334 37 76 102 270 102 303 0 12 7 51 15 87 24 105 38 313 32 475 -6 181 -23 408 -37 490 -5 33 -14 94 -20 135 -20 141 -28 185 -44 260 -16 68 -24 103 -58 225 -35 132 -118 358 -172 470 -155 323 -341 521 -561 596 -75 25 -101 29 -237 32 -84 2 -160 2 -170 0z"/> <path d="M9215 3880 c-10 -17 24 -62 42 -56 8 3 17 6 19 6 9 0 3 37 -8 48 -15 15 -45 16 -53 2z"/> <path d="M4248 3714 c-30 -16 -35 -33 -16 -52 21 -21 37 -13 53 24 8 20 15 38 15 40 0 8 -26 2 -52 -12z"/> <path d="M8090 3085 c-20 -52 32 -89 88 -63 38 19 35 47 -8 63 -19 7 -43 16 -52 20 -13 5 -20 0 -28 -20z"/> <path d="M7416 2935 c-8 -32 -1 -45 25 -45 25 0 34 22 19 49 -15 29 -36 26 -44 -4z"/> <path d="M6637 2954 c-13 -13 -7 -72 9 -88 18 -18 60 -21 99 -6 23 9 26 14 23 52 l-3 43 -60 3 c-34 2 -64 0 -68 -4z"/> </g> </svg> 