 <svg  version="1.0" xmlns="http://www.w3.org/2000/svg"  width="450.000000pt" height="450.000000pt" viewBox="0 0 450.000000 450.000000"  preserveAspectRatio="xMidYMid meet">  <g transform="translate(0.000000,450.000000) scale(0.100000,-0.100000)" fill="#ffffff" stroke="none"> <path d="M2068 3834 c-3 -2 -22 -6 -44 -9 -78 -11 -199 -37 -209 -45 -5 -4 -23 -10 -38 -14 -21 -5 -27 -4 -21 5 5 9 2 10 -10 6 -10 -4 -23 -7 -29 -8 -7 0 -3 -4 8 -9 18 -8 18 -9 2 -9 -10 -1 -40 -12 -68 -26 -27 -14 -55 -23 -61 -19 -7 4 -8 3 -4 -4 4 -7 1 -12 -6 -12 -7 0 -40 -14 -73 -30 -32 -16 -63 -26 -69 -23 -5 3 -6 1 -2 -5 8 -14 -27 -34 -47 -26 -8 3 -18 0 -23 -7 -5 -9 -2 -10 10 -6 30 12 7 -11 -34 -34 -22 -13 -40 -26 -40 -31 0 -4 -6 -8 -12 -8 -7 0 -33 -21 -57 -45 -25 -25 -48 -45 -53 -45 -4 0 -25 -18 -47 -40 -22 -22 -37 -40 -35 -40 3 0 -1 -6 -8 -14 -7 -7 -19 -11 -26 -9 -7 3 -10 0 -7 -8 3 -8 -13 -34 -36 -59 -22 -24 -47 -56 -54 -70 -8 -14 -25 -37 -40 -52 -14 -16 -23 -28 -19 -28 4 0 -3 -12 -17 -27 -13 -14 -18 -23 -11 -19 8 5 2 -11 -13 -35 -49 -77 -104 -209 -146 -349 -23 -77 -60 -320 -52 -348 2 -11 0 -23 -6 -26 -12 -8 -15 -76 -3 -76 8 0 16 -103 15 -190 0 -25 2 -38 5 -30 5 14 30 -92 35 -150 1 -14 10 -39 20 -57 9 -18 17 -37 17 -43 0 -6 9 -30 20 -52 11 -23 18 -49 15 -58 -3 -9 5 -27 17 -40 13 -14 23 -27 23 -30 0 -3 10 -21 23 -41 12 -20 22 -41 22 -46 0 -6 7 -16 15 -23 9 -7 13 -22 10 -34 -3 -12 -2 -15 1 -8 8 17 55 -54 48 -72 -3 -8 0 -17 7 -22 9 -5 10 -2 6 12 -5 14 -2 12 13 -6 11 -14 27 -32 35 -41 18 -19 20 -33 3 -23 -7 4 -8 3 -4 -5 4 -6 11 -9 16 -6 5 3 11 -4 15 -14 3 -11 15 -23 26 -26 10 -4 19 -10 19 -15 0 -10 85 -96 117 -117 13 -9 20 -21 16 -31 -4 -15 -3 -15 6 -2 10 14 16 7 12 -13 -1 -5 3 -5 9 -2 6 4 22 -5 35 -19 14 -15 27 -26 30 -26 17 1 18 -1 5 -11 -13 -9 -12 -10 3 -5 21 7 79 -32 70 -47 -3 -6 -1 -7 5 -3 10 6 66 -17 82 -34 3 -3 24 -14 48 -24 23 -11 42 -23 42 -28 0 -4 9 -8 19 -8 11 0 26 -6 33 -13 7 -8 19 -12 27 -9 8 3 11 0 7 -6 -3 -5 1 -13 10 -16 8 -3 12 -2 9 4 -6 10 70 -11 149 -41 27 -10 77 -21 110 -25 46 -5 56 -9 41 -16 -13 -5 0 -6 35 -3 36 3 46 1 30 -4 -22 -7 -21 -8 17 -12 23 -2 40 -1 37 2 -2 4 83 5 189 4 112 -1 184 2 172 6 -13 6 -4 7 28 4 26 -2 45 0 42 4 -2 5 17 11 43 15 26 3 99 24 162 45 62 22 118 37 123 34 6 -3 7 -1 3 5 -4 7 -2 13 3 13 19 2 25 5 86 35 33 16 62 32 63 37 2 4 8 7 13 7 9 0 100 61 132 88 9 8 17 11 17 6 0 -5 5 -1 11 9 5 9 14 17 19 17 5 0 21 11 35 26 14 14 30 22 35 19 6 -4 9 -2 8 3 -2 5 18 30 44 55 26 24 64 64 84 88 20 24 41 43 45 41 5 -1 9 5 9 13 0 8 9 20 20 27 11 7 20 20 20 28 0 13 1 13 11 0 8 -12 9 -10 4 7 -4 13 -1 25 8 30 7 4 17 16 20 26 4 10 12 15 18 12 6 -4 9 -1 8 6 -3 13 17 58 30 69 11 9 101 195 101 208 0 7 4 20 10 30 17 31 74 217 72 234 -2 9 1 19 7 22 5 4 8 23 5 44 -3 28 -2 32 5 17 7 -14 8 -4 4 35 -2 30 -1 50 4 43 4 -6 6 57 5 140 -2 84 -4 163 -4 176 0 19 -2 21 -10 10 -7 -10 -9 -8 -5 9 3 12 1 20 -3 17 -5 -3 -13 3 -19 12 -16 28 -13 0 5 -43 25 -58 13 -329 -20 -482 -121 -552 -508 -980 -1048 -1156 -147 -48 -284 -68 -464 -68 -419 1 -795 155 -1089 447 -117 116 -202 231 -272 365 -100 194 -139 308 -168 494 -23 147 -17 409 13 546 85 390 304 726 622 952 227 161 474 251 769 280 187 18 414 -9 611 -74 227 -74 538 -274 609 -391 14 -22 27 -35 29 -28 2 6 -6 27 -17 47 -12 20 -18 40 -15 46 4 6 2 8 -4 4 -11 -7 -77 43 -68 52 3 3 14 -1 23 -9 16 -13 17 -12 4 4 -7 9 -19 16 -25 15 -6 -2 -22 5 -36 15 -14 10 -55 40 -93 67 -37 26 -64 50 -60 52 5 3 2 3 -4 2 -20 -5 -44 7 -36 19 4 6 0 8 -10 4 -11 -4 -18 1 -23 15 -3 11 -9 16 -13 11 -4 -6 -21 -3 -45 7 -21 10 -34 20 -30 22 5 3 4 3 -3 2 -11 -3 -122 42 -166 67 -10 6 -31 12 -45 15 -76 13 -192 41 -188 45 2 2 -12 3 -32 3 -20 -1 -41 2 -47 6 -10 7 -360 11 -367 4z m-1248 -2209 c14 -19 14 -19 -2 -6 -10 7 -18 18 -18 24 0 6 1 8 3 6 1 -2 9 -13 17 -24z"/> <path d="M2035 3779 c-505 -78 -927 -381 -1149 -825 -64 -128 -103 -238 -133 -383 -24 -110 -27 -148 -27 -306 1 -148 5 -199 23 -285 106 -499 432 -906 884 -1102 636 -276 1382 -91 1802 447 210 270 322 581 328 917 2 124 -9 245 -21 233 -4 -4 -5 -73 -3 -155 3 -150 -14 -330 -32 -330 -5 0 -6 -11 -3 -25 4 -17 1 -31 -9 -42 -11 -11 -14 -24 -9 -45 4 -20 2 -28 -4 -24 -5 3 -10 -4 -10 -17 0 -38 -53 -178 -64 -171 -6 4 -8 2 -5 -3 14 -23 -105 -230 -175 -305 -10 -10 -18 -21 -18 -25 0 -12 -60 -73 -71 -73 -5 0 -8 -3 -7 -7 2 -5 0 -8 -5 -8 -4 0 -16 -15 -28 -34 -11 -18 -29 -35 -40 -38 -10 -3 -19 -9 -19 -14 0 -13 -63 -68 -77 -69 -7 0 -13 -4 -13 -10 0 -11 -65 -56 -130 -91 -25 -14 -57 -33 -72 -43 -15 -10 -33 -14 -39 -10 -8 4 -9 3 -5 -4 6 -10 -6 -17 -16 -10 -2 1 -14 -5 -28 -12 -14 -8 -29 -13 -33 -12 -5 1 -6 -1 -3 -6 3 -4 -21 -16 -52 -26 -31 -10 -71 -25 -89 -33 -20 -10 -43 -13 -60 -9 -22 5 -25 4 -13 -5 12 -9 10 -10 -9 -5 -14 3 -30 1 -37 -5 -7 -5 -41 -11 -77 -12 -36 -1 -63 -5 -61 -9 8 -13 -239 -18 -306 -6 -25 4 -63 10 -85 12 -133 13 -174 20 -171 25 2 3 -6 7 -17 8 -30 2 -97 26 -97 35 0 4 -7 4 -17 1 -11 -4 -14 -3 -9 5 5 8 1 10 -10 5 -11 -4 -15 -2 -11 4 4 6 -4 8 -21 6 -21 -4 -24 -2 -12 6 13 10 13 11 0 12 -37 2 -65 10 -72 22 -4 6 -8 9 -8 4 0 -4 -23 5 -51 20 -123 68 -160 93 -152 106 3 7 3 9 -2 5 -11 -11 -47 11 -39 24 4 6 3 8 -3 5 -22 -14 -202 147 -197 176 1 9 -3 14 -10 11 -17 -6 -50 32 -40 47 4 7 3 10 -4 5 -15 -9 -133 154 -128 177 3 11 2 16 -1 13 -9 -9 -79 95 -72 106 1 2 -8 22 -20 46 -13 26 -20 52 -16 65 5 16 4 18 -3 8 -7 -10 -13 -4 -22 23 -7 21 -9 40 -6 43 3 4 -1 17 -10 31 -9 13 -14 32 -11 43 3 10 0 17 -6 16 -6 -1 -11 3 -12 8 0 6 -5 28 -9 50 -18 86 -33 264 -29 335 2 41 4 88 3 104 -1 53 30 207 45 223 17 17 20 27 5 18 -13 -8 -13 -3 1 32 6 15 13 42 16 58 3 17 9 32 14 33 5 2 7 7 4 12 -2 4 10 42 29 85 20 45 36 72 40 64 3 -8 4 -5 1 6 -2 11 6 38 20 60 13 22 33 56 44 75 45 80 186 251 204 247 5 -1 12 5 14 13 4 13 3 13 -6 0 -6 -8 -11 -11 -11 -7 0 11 100 102 112 102 4 0 8 4 8 8 -1 5 13 18 29 30 16 12 50 36 74 54 25 18 47 29 51 26 3 -4 6 -1 6 5 0 17 261 141 303 144 20 2 37 6 37 10 0 13 58 26 69 15 7 -7 11 -7 11 -1 0 18 113 46 210 53 172 12 379 3 465 -21 22 -6 45 -12 50 -13 38 -5 86 -19 91 -26 3 -5 16 -9 30 -9 13 0 55 -14 92 -32 37 -17 90 -41 119 -53 66 -29 224 -135 217 -146 -3 -5 2 -9 11 -9 9 0 13 -4 10 -10 -4 -6 1 -7 11 -3 13 5 15 3 9 -7 -5 -9 -4 -11 4 -6 13 8 41 -16 59 -53 7 -14 10 -17 7 -6 -5 15 2 12 29 -14 19 -18 32 -39 30 -46 -3 -7 -1 -16 5 -20 7 -4 8 0 4 11 -5 14 -3 15 18 4 39 -21 -36 65 -114 131 -192 162 -426 275 -682 330 -113 24 -405 35 -510 18z"/> <path d="M2460 3673 c0 -7 -11 -13 -24 -13 -26 0 -51 -24 -41 -40 4 -7 -2 -7 -20 0 -34 13 -98 13 -111 0 -13 -13 -46 -2 -37 13 4 7 0 8 -13 3 -10 -4 -15 -4 -12 0 8 8 -16 34 -31 34 -6 0 -15 -9 -21 -21 -7 -11 -18 -18 -25 -15 -8 3 -16 0 -19 -7 -3 -9 -8 -8 -15 3 -8 12 -11 12 -11 1 0 -11 -3 -11 -15 -1 -9 8 -15 8 -15 2 0 -11 -55 -27 -80 -23 -13 2 -13 1 0 -8 21 -14 5 -25 -18 -12 -12 6 -31 11 -44 11 -13 0 -30 6 -38 13 -12 10 -12 9 -1 -5 11 -15 11 -18 -1 -18 -8 0 -23 -9 -33 -20 -17 -19 -18 -19 -43 0 -30 24 -81 25 -141 2 -35 -13 -46 -24 -53 -47 -4 -18 -3 -34 3 -40 7 -7 8 -4 3 9 -5 13 -4 17 4 12 6 -3 16 -32 22 -64 18 -84 25 -95 63 -86 18 3 34 10 35 15 2 5 17 9 33 9 19 0 39 10 55 25 25 25 44 32 44 17 0 -11 73 -7 96 6 21 11 66 10 99 -3 16 -5 17 -5 5 4 -13 9 -13 11 0 11 8 0 28 7 44 15 23 12 32 13 43 3 8 -7 33 -13 56 -14 24 -1 35 1 27 6 -9 6 -7 10 10 15 12 4 27 2 33 -4 6 -6 22 -11 35 -11 13 0 33 -5 44 -11 11 -6 18 -7 15 -2 -3 4 1 13 8 20 10 9 17 8 31 -8 18 -20 53 -22 66 -5 4 6 12 5 21 -3 23 -19 57 -22 64 -5 4 12 7 12 19 -3 7 -10 14 -13 14 -8 0 6 4 4 9 -4 6 -9 28 -15 60 -15 38 -1 50 -4 46 -14 -3 -7 -1 -11 4 -7 5 3 17 2 26 -1 13 -6 14 -9 3 -16 -9 -7 -8 -8 6 -4 10 4 24 2 30 -2 17 -14 74 6 81 28 4 11 11 20 16 20 11 0 8 22 -5 31 -4 4 -3 16 4 29 15 29 8 46 -31 65 -21 11 -43 15 -66 10 -27 -5 -40 -1 -64 19 -32 27 -62 32 -102 17 -18 -7 -24 -6 -24 4 0 8 4 12 9 8 6 -3 2 9 -6 26 -15 28 -21 31 -61 31 -31 0 -47 5 -54 18 -6 9 -11 11 -11 5z m-249 -63 c29 0 38 -13 17 -26 -7 -4 -8 -3 -4 4 5 8 -2 12 -18 12 -24 0 -26 -3 -26 -47 0 -53 12 -79 29 -68 9 5 7 11 -5 19 -13 10 -14 15 -5 21 17 10 34 -8 29 -31 -4 -22 -52 -31 -73 -14 -8 6 -17 33 -21 58 -3 26 -11 53 -16 60 -8 9 -4 12 16 12 19 0 27 6 33 28 l8 27 3 -27 c3 -24 8 -28 33 -28z m251 -48 c-6 -49 -5 -73 2 -76 18 -6 -10 -28 -30 -24 -17 3 -19 14 -19 90 0 85 0 87 25 90 14 2 26 0 28 -3 1 -3 -1 -38 -6 -77z m104 51 c-18 -56 -25 -127 -15 -134 16 -9 2 -29 -20 -29 -35 0 -40 20 -28 103 11 76 12 77 40 77 22 0 27 -4 23 -17z m-202 -9 c17 -7 22 -39 6 -49 -5 -3 -25 -6 -45 -7 -41 -1 -47 -24 -15 -53 20 -18 50 -15 50 6 0 6 -6 9 -14 6 -20 -8 -28 4 -15 20 14 16 49 17 50 1 2 -24 -3 -43 -14 -50 -22 -14 -72 -8 -96 11 -32 24 -35 86 -6 107 19 14 72 19 99 8z m-264 -26 c0 -20 -1 -20 -18 -5 -20 19 -52 23 -52 7 0 -5 17 -18 39 -29 63 -32 63 -65 1 -91 -25 -10 -34 -10 -56 4 -14 10 -24 25 -22 34 4 22 44 28 51 8 4 -11 1 -16 -10 -16 -13 0 -14 -3 -6 -11 15 -15 43 -4 43 16 0 10 -16 23 -40 32 -66 26 -49 73 27 73 37 0 43 -3 43 -22z m-156 -4 c38 -15 -1 -64 -49 -64 -21 0 -18 -24 5 -45 20 -18 50 -15 50 6 0 6 -6 9 -14 6 -20 -8 -28 4 -15 20 10 12 49 19 49 9 0 -2 3 -11 6 -19 8 -23 -24 -47 -62 -47 -51 0 -72 15 -80 57 -6 32 -3 40 20 60 27 23 59 29 90 17z m-180 -18 c23 -9 37 -24 45 -46 23 -68 9 -94 -64 -114 -27 -7 -57 -16 -66 -20 -13 -6 -16 0 -17 31 -1 20 -12 59 -25 85 -20 41 -22 48 -8 48 9 1 27 7 41 15 32 18 52 18 94 1z m933 -8 c60 -56 -14 -159 -83 -113 -36 23 -45 48 -33 85 18 51 77 65 116 28z m138 -30 c14 -6 25 -19 25 -30 0 -24 -16 -23 -23 2 -3 12 -14 20 -27 20 -23 0 -21 -9 10 -45 26 -31 31 -53 14 -70 -32 -32 -114 -6 -114 36 0 25 25 35 45 19 22 -19 18 -32 -7 -25 -22 7 -22 6 -6 -10 16 -18 48 -15 48 4 0 5 -11 23 -25 39 -14 17 -25 37 -25 45 0 27 43 34 85 15z"/> <path d="M2302 3588 c-20 -20 -14 -30 16 -26 16 2 27 9 27 18 0 19 -27 24 -43 8z"/> <path d="M1894 3562 c-14 -10 -25 -42 -15 -42 20 0 41 13 41 25 0 18 -13 26 -26 17z"/> <path d="M1690 3539 c0 -5 5 -31 12 -56 10 -42 12 -44 20 -24 7 19 11 21 23 11 19 -16 20 -41 1 -34 -7 3 -16 -1 -19 -8 -3 -9 3 -15 18 -16 13 -1 26 5 29 14 7 18 -17 80 -41 106 -18 20 -43 24 -43 7z"/> <path d="M2629 3511 c-22 -74 15 -98 39 -26 14 43 10 65 -12 65 -9 0 -20 -16 -27 -39z"/> <path d="M2740 3670 c0 -5 5 -10 11 -10 5 0 7 5 4 10 -3 6 -8 10 -11 10 -2 0 -4 -4 -4 -10z"/> <path d="M3970 3536 c0 -78 17 -119 60 -141 29 -15 171 -22 156 -7 -8 7 -14 8 -83 11 -60 2 -112 54 -115 114 -3 70 -3 76 -11 83 -4 4 -7 -23 -7 -60z"/> <path d="M3938 3550 c-4 -14 -8 -37 -8 -52 0 -18 -12 -39 -34 -61 -30 -30 -43 -35 -107 -43 l-74 -9 73 -3 c118 -5 167 39 160 144 -2 40 -4 44 -10 24z"/> <path d="M3020 3536 c0 -2 8 -10 18 -17 15 -13 16 -12 3 4 -13 16 -21 21 -21 13z"/> <path d="M1265 3390 c-3 -5 -1 -10 4 -10 6 0 11 5 11 10 0 6 -2 10 -4 10 -3 0 -8 -4 -11 -10z"/> <path d="M2867 3383 c-4 -3 -7 -11 -7 -17 0 -6 5 -5 12 2 6 6 9 14 7 17 -3 3 -9 2 -12 -2z"/> <path d="M3755 3350 c17 -6 48 -11 70 -12 30 -1 48 -9 73 -34 28 -28 32 -39 32 -82 0 -28 5 -54 10 -57 14 -9 13 101 -1 128 -27 51 -49 62 -134 64 -63 2 -74 0 -50 -7z"/> <path d="M4032 3347 c-44 -25 -62 -66 -62 -141 0 -82 10 -82 16 1 7 94 45 130 149 137 81 6 77 13 -7 14 -44 1 -82 -3 -96 -11z"/> <path d="M3540 3242 c0 -165 31 -237 123 -281 37 -18 60 -21 153 -20 60 1 98 4 84 6 -14 3 -31 10 -39 16 -12 9 -13 9 -7 0 5 -10 -3 -13 -28 -13 -20 0 -36 4 -36 9 0 4 -10 6 -23 4 -66 -13 -177 56 -177 110 0 16 -4 26 -10 22 -5 -3 -10 4 -10 17 1 38 -19 211 -25 216 -3 3 -5 -36 -5 -86z"/> <path d="M3505 3195 c-4 -52 -11 -98 -16 -100 -4 -3 -5 -13 -2 -22 5 -12 3 -14 -7 -8 -8 5 -11 4 -7 -2 11 -17 -65 -82 -100 -85 -17 -1 -29 -6 -27 -10 3 -4 -7 -8 -21 -8 -16 0 -24 4 -19 11 3 6 -9 3 -27 -6 -20 -11 -46 -15 -68 -12 -20 2 -45 1 -56 -4 -12 -4 25 -8 91 -8 99 -1 115 2 161 24 71 36 102 84 114 177 5 40 8 90 7 111 -4 68 -16 38 -23 -58z"/> <path d="M860 3111 c0 -6 4 -13 10 -16 6 -3 7 1 4 9 -7 18 -14 21 -14 7z"/> <path d="M990 3069 c0 -5 5 -7 10 -4 6 3 10 8 10 11 0 2 -4 4 -10 4 -5 0 -10 -5 -10 -11z"/> <path d="M961 3004 c0 -11 3 -14 6 -6 3 7 2 16 -1 19 -3 4 -6 -2 -5 -13z"/> <path d="M796 2975 c-9 -26 -7 -32 5 -12 6 10 9 21 6 23 -2 3 -7 -2 -11 -11z"/> <path d="M3155 2970 c-16 -7 -17 -9 -3 -9 9 -1 20 4 23 9 7 11 7 11 -20 0z"/> <path d="M3733 2973 c9 -2 23 -2 30 0 6 3 -1 5 -18 5 -16 0 -22 -2 -12 -5z"/> <path d="M1617 2898 c-9 -10 -12 -18 -6 -18 6 0 9 -7 5 -15 -3 -8 0 -15 6 -15 6 0 9 -3 5 -6 -3 -4 0 -18 7 -33 37 -71 51 -218 51 -531 0 -298 -9 -400 -47 -517 -19 -61 -18 -116 3 -128 5 -4 6 2 2 11 -4 12 -3 15 5 10 7 -4 92 -6 189 -5 98 1 198 1 222 0 51 -2 70 16 71 67 0 17 3 32 6 32 12 0 35 -30 29 -39 -3 -5 0 -13 6 -17 8 -4 9 -3 5 4 -4 7 -3 12 3 12 5 0 13 -5 16 -10 10 -16 82 -50 105 -50 12 0 18 -4 15 -10 -6 -10 39 -14 125 -11 74 2 105 9 167 38 32 15 63 27 68 27 11 1 30 15 86 64 26 23 39 29 43 20 3 -7 3 -3 0 10 -3 12 -1 22 5 22 6 0 18 14 27 32 l16 32 15 -25 c9 -16 12 -17 7 -4 -10 27 -8 66 3 74 9 5 39 98 58 176 17 70 -6 290 -36 348 -7 12 -6 17 3 17 8 0 9 3 3 8 -17 12 -35 61 -29 79 5 15 4 16 -5 3 -6 -8 -11 -10 -11 -4 0 5 -15 35 -34 66 -26 43 -31 60 -23 74 7 15 7 16 -2 8 -9 -8 -24 0 -59 33 -62 59 -173 132 -212 140 -24 4 -28 8 -18 15 9 7 8 8 -6 4 -10 -4 -43 0 -72 9 -42 12 -126 16 -426 18 -344 2 -374 1 -391 -15z m804 -23 c227 -48 400 -219 465 -460 25 -93 30 -305 9 -385 -48 -186 -182 -321 -356 -360 -33 -7 -96 -11 -151 -8 -80 3 -101 8 -140 31 -59 34 -103 87 -120 143 -7 24 -16 44 -20 44 -4 0 -8 -45 -8 -100 l0 -99 -231 -3 c-127 -2 -233 0 -235 4 -2 4 5 24 16 46 45 87 54 172 54 552 0 410 -8 478 -72 603 -2 4 158 7 357 7 284 0 375 -3 432 -15z"/> <path d="M2100 2434 c0 -380 6 -468 24 -371 9 47 54 113 91 133 52 28 112 15 156 -35 50 -56 61 -123 38 -231 -12 -54 -36 -69 -36 -21 0 37 -27 79 -59 91 -61 23 -114 -38 -114 -133 0 -92 45 -154 118 -164 54 -7 83 1 119 34 36 33 64 85 89 168 40 129 17 419 -48 623 -69 219 -171 322 -315 322 l-63 0 0 -416z m163 374 c15 -6 27 -14 27 -19 0 -5 6 -9 13 -9 16 0 53 -38 45 -45 -3 -3 10 -22 29 -43 18 -20 39 -55 45 -77 6 -22 15 -44 18 -50 11 -16 47 -143 61 -220 9 -42 14 -137 14 -240 -1 -154 -3 -176 -24 -235 -15 -39 -40 -81 -64 -107 -35 -37 -46 -43 -82 -43 -39 0 -104 34 -91 47 3 3 -4 14 -15 26 -20 22 -27 97 -8 97 5 0 7 5 4 11 -11 17 4 58 26 70 31 16 69 3 69 -24 0 -18 2 -19 10 -7 7 11 10 6 10 -20 0 -39 14 -60 42 -60 18 0 42 33 31 44 -3 3 -2 6 4 6 6 0 9 10 6 23 -3 16 -2 18 5 9 6 -9 9 15 8 71 -1 49 -5 83 -10 79 -5 -3 -7 2 -3 11 3 10 2 17 -4 17 -6 0 -7 5 -4 10 3 6 1 10 -4 10 -6 0 -11 4 -11 10 0 9 -28 37 -74 77 -8 7 -30 9 -56 6 -31 -4 -41 -3 -36 5 4 7 15 12 24 13 10 0 12 3 5 6 -15 5 -60 -27 -112 -79 l-36 -38 3 340 3 339 22 4 c28 5 74 -2 110 -15z"/> <path d="M2141 2684 c0 -11 3 -14 6 -6 3 7 2 16 -1 19 -3 4 -6 -2 -5 -13z"/> <path d="M2141 2644 c0 -11 3 -14 6 -6 3 7 2 16 -1 19 -3 4 -6 -2 -5 -13z"/> <path d="M2286 1753 c-6 -14 -5 -15 5 -6 7 7 10 15 7 18 -3 3 -9 -2 -12 -12z"/> <path d="M2313 1733 c9 -2 23 -2 30 0 6 3 -1 5 -18 5 -16 0 -22 -2 -12 -5z"/> <path d="M3162 2915 c7 -8 37 -13 138 -22 54 -4 69 -9 55 -15 -15 -6 -12 -7 12 -4 26 4 38 -1 72 -34 38 -37 56 -71 29 -54 -7 4 -8 3 -4 -5 4 -6 11 -9 16 -6 9 6 25 -73 16 -82 -3 -3 -1 -14 4 -24 7 -12 7 -20 0 -24 -5 -3 -10 -12 -10 -18 0 -7 4 -6 10 3 7 11 10 1 10 -35 0 -35 3 -46 10 -35 16 25 2 197 -19 239 -44 84 -103 114 -241 119 -58 2 -102 1 -98 -3z"/> <path d="M3705 2909 c-77 -18 -138 -80 -156 -156 -10 -43 -12 -240 -3 -230 7 7 9 23 18 150 4 50 12 84 21 94 8 8 15 20 15 26 0 7 -4 6 -10 -3 -5 -8 -10 -10 -10 -5 0 17 72 81 105 93 17 6 57 13 90 17 33 3 83 9 110 14 45 7 40 8 -45 9 -52 0 -113 -4 -135 -9z"/> <path d="M736 2775 c-9 -26 -7 -32 5 -12 6 10 9 21 6 23 -2 3 -7 -2 -11 -11z"/> <path d="M3583 2735 c-3 -9 -3 -18 -1 -21 3 -3 8 4 11 16 6 23 -1 27 -10 5z"/> <path d="M3600 1701 c0 -6 4 -13 10 -16 6 -3 7 1 4 9 -7 18 -14 21 -14 7z"/> <path d="M3130 1465 c-12 -13 -26 -23 -30 -20 -3 2 -5 -9 -2 -24 5 -35 62 -98 97 -107 29 -7 69 22 81 59 6 20 -25 97 -39 97 -5 0 -5 -4 -2 -10 11 -18 -11 -10 -30 10 -24 27 -47 25 -75 -5z m65 -5 c3 -6 -5 -14 -19 -20 -14 -5 -26 -16 -26 -25 0 -19 24 -19 40 0 30 36 83 -3 60 -45 -15 -27 -49 -45 -63 -31 -7 7 -2 13 16 20 15 6 27 17 27 26 0 19 -19 19 -44 0 -25 -19 -31 -19 -50 1 -21 20 -20 26 5 58 21 27 43 33 54 16z"/> <path d="M990 1471 c0 -6 4 -13 10 -16 6 -3 7 1 4 9 -7 18 -14 21 -14 7z"/> <path d="M1285 1420 c-34 -13 -59 -49 -59 -86 0 -28 8 -43 38 -71 l37 -35 27 23 c39 36 61 62 68 82 9 29 -15 74 -44 83 -43 12 -46 12 -67 4z m80 -40 c10 -12 15 -26 11 -37 -6 -15 -10 -13 -31 12 -19 24 -27 28 -41 19 -29 -17 -40 -42 -28 -61 18 -29 38 -29 30 1 -7 29 0 32 29 11 19 -15 19 -16 -6 -41 l-26 -26 -28 24 c-32 28 -36 69 -10 98 24 26 76 26 100 0z"/> <path d="M3086 1358 c5 -8 0 -9 -16 -5 -26 7 -60 -8 -60 -26 0 -7 11 -34 25 -62 35 -71 31 -74 -21 -16 -44 49 -47 51 -65 35 -11 -9 -19 -28 -19 -41 0 -25 -7 -28 -29 -14 -19 12 -51 -9 -51 -34 0 -11 10 -32 23 -47 12 -15 30 -39 40 -52 14 -20 22 -24 40 -17 12 5 22 17 22 27 1 33 14 45 34 32 15 -9 24 -7 46 10 15 12 23 22 16 22 -6 0 -11 5 -11 11 0 6 7 8 16 5 21 -8 44 11 44 36 0 10 5 16 10 13 6 -3 10 -1 10 4 0 6 9 11 19 11 20 0 34 22 25 43 -2 6 -22 23 -44 36 -21 14 -37 28 -34 33 3 4 -2 8 -11 8 -10 0 -13 -5 -9 -12z m28 -43 c54 -24 79 -53 35 -42 -29 8 -60 -21 -53 -50 13 -49 -14 -20 -37 40 -13 34 -25 65 -27 70 -7 14 26 7 82 -18z m-109 -92 c19 -27 35 -54 35 -60 0 -23 -21 -14 -38 17 -20 36 -35 39 -26 6 6 -27 -12 -44 -29 -27 -6 6 -17 11 -25 11 -9 0 -5 -10 12 -31 14 -17 23 -35 20 -41 -7 -11 -52 37 -75 79 -17 32 -4 39 36 20 l35 -17 0 45 c0 25 4 45 10 45 5 0 25 -21 45 -47z"/> <path d="M3072 1294 c3 -17 21 -21 26 -6 1 5 -4 12 -13 16 -11 4 -15 1 -13 -10z"/> <path d="M1427 1300 c-16 -12 -32 -17 -43 -13 -11 4 -15 2 -11 -4 3 -5 -5 -16 -18 -23 -13 -7 -26 -19 -29 -27 -9 -23 12 -53 36 -50 15 1 23 -4 26 -18 5 -26 14 -35 42 -40 12 -2 20 -2 17 1 -3 4 3 15 13 26 10 11 16 26 14 32 -3 7 1 26 7 42 11 27 14 41 10 62 0 4 -10 13 -20 19 -16 10 -24 9 -44 -7z m37 -42 c-15 -72 -30 -113 -39 -108 -6 3 -9 12 -8 21 3 25 -34 56 -49 41 -16 -16 -28 -15 -28 2 0 15 92 73 118 75 10 1 12 -7 6 -31z"/> <path d="M1415 1240 c-3 -5 -3 -15 1 -21 6 -11 23 6 24 24 0 10 -18 9 -25 -3z"/> <path d="M1528 1232 c-7 -10 -22 -24 -33 -30 -11 -6 -14 -12 -7 -12 9 0 7 -9 -7 -29 -29 -40 -26 -56 14 -87 57 -43 115 -14 66 35 -18 18 -18 20 4 58 24 39 23 48 -7 71 -14 11 -18 10 -30 -6z m35 -18 c3 -4 -8 -27 -25 -52 -17 -25 -27 -47 -21 -49 22 -8 48 -32 41 -39 -9 -9 -78 26 -78 40 0 13 61 106 69 106 4 0 10 -3 14 -6z"/> <path d="M3150 1229 c0 -5 5 -7 10 -4 6 3 10 8 10 11 0 2 -4 4 -10 4 -5 0 -10 -5 -10 -11z"/> <path d="M1632 1145 c-12 -14 -26 -25 -32 -25 -5 0 -10 -5 -10 -11 0 -8 5 -8 15 1 19 16 19 1 0 -24 -22 -29 -18 -62 9 -79 39 -26 71 -30 86 -12 11 14 11 21 -4 47 -13 21 -15 32 -8 37 14 8 19 62 8 79 -12 20 -41 14 -64 -13z m48 -5 c0 -6 -10 -30 -21 -52 -12 -23 -17 -44 -12 -45 22 -8 47 -32 40 -39 -9 -10 -77 22 -77 36 0 19 50 110 60 110 6 0 10 -5 10 -10z"/> <path d="M2694 1140 c-33 -13 -49 -41 -49 -89 0 -34 6 -52 22 -68 25 -26 74 -30 93 -8 7 8 18 15 24 15 6 0 4 -5 -4 -10 -8 -5 -10 -10 -4 -10 17 0 44 34 44 56 0 11 -8 27 -17 36 -27 25 -45 48 -37 48 12 0 -17 28 -34 32 -10 3 -27 2 -38 -2z m46 -35 c0 -5 -10 -10 -22 -10 -31 0 -33 -20 -3 -33 33 -15 35 -15 35 3 0 8 5 15 10 15 6 0 10 -9 10 -20 0 -11 7 -20 15 -20 8 0 15 -7 15 -16 0 -10 -6 -14 -14 -11 -8 3 -22 -3 -32 -14 -19 -22 -57 -25 -72 -6 -13 16 -13 98 1 115 12 15 58 12 57 -3z"/> <path d="M2696 1032 c-3 -5 0 -15 7 -21 10 -8 19 -7 33 4 10 8 14 15 7 15 -6 0 -18 3 -26 6 -8 3 -18 1 -21 -4z"/> <path d="M1756 1091 c-9 -16 -22 -48 -30 -72 -14 -39 -14 -45 -1 -55 8 -6 12 -13 9 -16 -8 -8 80 -20 98 -13 10 4 14 14 10 27 -3 12 1 26 9 32 8 6 14 17 14 24 0 6 5 11 10 10 6 -2 9 -16 8 -32 -1 -22 1 -26 9 -15 7 10 8 5 4 -18 -4 -23 0 -38 14 -55 l20 -23 20 24 c11 13 20 32 20 43 0 10 5 16 10 13 6 -3 10 0 10 8 0 12 19 27 34 27 1 0 -1 -23 -4 -51 -6 -43 -4 -54 12 -69 19 -17 90 -21 105 -6 4 4 7 30 7 58 1 37 5 52 16 55 9 3 11 1 4 -4 -16 -13 -9 -81 11 -103 22 -24 38 -25 55 -5 12 14 15 14 30 0 21 -19 46 -11 66 24 8 14 13 18 10 9 -3 -11 2 -22 15 -29 26 -14 47 -5 59 23 6 16 9 18 9 7 1 -9 7 -19 15 -22 21 -8 57 4 49 16 -4 7 6 8 30 4 49 -8 75 15 54 47 -8 11 -20 32 -28 46 -26 47 -58 71 -79 60 -20 -11 -24 -21 -35 -85 -7 -36 -8 -38 -16 -17 -5 12 -6 29 -3 37 6 14 -30 54 -49 55 -21 1 -34 -27 -29 -66 2 -23 0 -50 -5 -59 -8 -13 -9 -4 -6 32 5 49 5 50 -30 66 -40 19 -80 22 -107 7 -13 -7 -26 -5 -47 5 -34 18 -75 19 -91 3 -9 -9 -15 -8 -26 7 -8 11 -20 20 -28 21 -7 0 -23 2 -36 2 -13 1 -20 7 -17 12 8 13 -18 13 -31 0 -6 -6 -27 -1 -59 15 -64 31 -71 31 -89 -4z m67 -6 c44 -18 61 -40 26 -33 -13 3 -30 7 -38 9 -25 7 -23 -21 3 -31 29 -11 36 -35 9 -27 -10 2 -24 6 -32 8 -8 2 -16 -3 -18 -13 -3 -11 5 -18 26 -23 31 -7 39 -19 21 -30 -7 -5 -63 17 -79 31 -2 1 5 24 14 51 9 26 19 54 21 61 4 15 4 15 47 -3z m148 -41 c25 -4 39 -12 39 -21 0 -11 -7 -13 -24 -9 -21 5 -25 2 -31 -31 -8 -46 -23 -75 -35 -68 -4 3 -2 29 6 58 7 28 14 53 14 55 0 1 -9 2 -20 2 -12 0 -20 7 -20 16 0 11 5 14 16 10 9 -3 33 -9 55 -12z m552 -61 c22 -32 32 -55 26 -59 -6 -3 -16 1 -22 11 -10 13 -18 14 -40 6 -15 -6 -27 -17 -27 -26 0 -8 -4 -15 -10 -15 -12 0 -12 22 1 80 19 86 14 86 72 3z m-396 37 c8 0 13 -6 10 -12 -2 -8 -16 -12 -35 -10 -40 4 -46 -25 -7 -30 33 -4 32 -24 -1 -21 -18 1 -24 -3 -24 -18 0 -15 7 -19 31 -19 20 0 29 -4 26 -12 -4 -14 -66 -12 -81 2 -4 4 -5 36 -1 70 l7 62 30 -6 c17 -3 37 -6 45 -6z m249 -21 c8 -87 7 -103 -2 -106 -13 -4 -24 42 -24 99 0 44 22 50 26 7z m-98 9 c5 -7 10 -31 9 -53 0 -22 2 -46 4 -54 2 -7 -1 -16 -8 -18 -7 -2 -15 7 -19 21 -4 19 -13 26 -31 26 -19 0 -24 -4 -21 -22 2 -11 -3 -23 -9 -25 -10 -4 -13 14 -13 66 l0 71 39 0 c21 0 43 -6 49 -12z"/> <path d="M2470 980 c0 -11 7 -20 15 -20 17 0 18 2 9 24 -9 23 -24 20 -24 -4z"/> <path d="M2210 970 c0 -15 7 -20 25 -20 18 0 25 5 25 20 0 15 -7 20 -25 20 -18 0 -25 -5 -25 -20z"/> <path d="M1447 1077 c-3 -7 3 -13 14 -13 13 0 15 3 7 13 -6 7 -12 13 -13 13 -2 0 -5 -6 -8 -13z"/> <path d="M3236 1052 c-3 -5 1 -9 9 -9 8 0 12 4 9 9 -3 4 -7 8 -9 8 -2 0 -6 -4 -9 -8z"/> <path d="M3210 990 c-9 -6 -10 -10 -3 -10 6 0 15 5 18 10 8 12 4 12 -15 0z"/> </g> </svg> 